<svg width="118" height="118" viewBox="0 0 118 118" fill="none" xmlns="http://www.w3.org/2000/svg">
<path d="M22.0098 23.9687H95.7598C96.6212 23.9685 97.4819 24.0232 98.3364 24.1324C98.0467 22.0991 97.3483 20.1456 96.2833 18.3895C95.2182 16.6335 93.8086 15.1113 92.1393 13.9148C90.4701 12.7183 88.5758 11.8722 86.5708 11.4275C84.5657 10.9828 82.4913 10.9488 80.4728 11.3275L19.8203 21.6825H19.7512C15.944 22.4105 12.5584 24.5646 10.2858 27.7046C13.7097 25.2693 17.8082 23.9633 22.0098 23.9687ZM95.7598 29.5H22.0098C18.0991 29.5043 14.3499 31.0596 11.5847 33.8249C8.81942 36.5901 7.26404 40.3394 7.25977 44.25V88.5C7.26404 92.4106 8.81942 96.1599 11.5847 98.9251C14.3499 101.69 18.0991 103.246 22.0098 103.25H95.7598C99.6704 103.246 103.42 101.69 106.185 98.9251C108.95 96.1599 110.505 92.4106 110.51 88.5V44.25C110.505 40.3394 108.95 36.5901 106.185 33.8249C103.42 31.0596 99.6704 29.5043 95.7598 29.5ZM84.8125 73.75C83.3539 73.75 81.928 73.3175 80.7152 72.5071C79.5024 71.6967 78.5571 70.5449 77.9989 69.1973C77.4407 67.8497 77.2946 66.3668 77.5792 64.9362C77.8638 63.5056 78.5662 62.1915 79.5976 61.1601C80.629 60.1287 81.9431 59.4263 83.3737 59.1417C84.8043 58.8571 86.2872 59.0032 87.6348 59.5614C88.9824 60.1196 90.1342 61.0648 90.9446 62.2777C91.755 63.4905 92.1875 64.9164 92.1875 66.375C92.1875 68.331 91.4105 70.2068 90.0274 71.5899C88.6443 72.973 86.7685 73.75 84.8125 73.75Z" fill="#1F4E79"/>
<path d="M7.375 59.8066V36.875C7.375 31.8807 10.1406 23.5078 19.7396 21.694C27.8867 20.166 35.9531 20.166 35.9531 20.166C35.9531 20.166 41.2539 23.8535 36.875 23.8535C32.4961 23.8535 32.6113 29.5 36.875 29.5C41.1387 29.5 36.875 34.916 36.875 34.916L19.7051 54.3906L7.375 59.8066Z" fill="#1F4E79"/>
<path d="M97 68.5C97 74.8513 91.8513 80 85.5 80C79.1487 80 74 74.8513 74 68.5C74 62.1487 79.1487 57 85.5 57C91.8513 57 97 62.1487 97 68.5Z" fill="#1F4E79"/>
<path d="M45.718 84V48.1353H59.8678C62.5763 48.1353 64.8879 48.6198 66.8025 49.5888C68.7289 50.5461 70.194 51.9062 71.1981 53.6691C72.2138 55.4203 72.7216 57.4809 72.7216 59.8509C72.7216 62.2325 72.2079 64.2814 71.1806 65.9976C70.1532 67.7021 68.6647 69.0097 66.715 69.9203C64.777 70.8309 62.4304 71.2862 59.6751 71.2862H50.2011V65.192H58.4493C59.897 65.192 61.0994 64.9936 62.0568 64.5966C63.0141 64.1997 63.7263 63.6043 64.1932 62.8104C64.6719 62.0165 64.9112 61.03 64.9112 59.8509C64.9112 58.66 64.6719 57.656 64.1932 56.8388C63.7263 56.0215 63.0083 55.4028 62.0393 54.9825C61.0819 54.5505 59.8736 54.3346 58.4143 54.3346H53.3007V84H45.718ZM65.0864 67.6787L74 84H65.6292L56.9082 67.6787H65.0864Z" fill="white"/>
</svg>
